<svg viewBox="0 0 200 200" xmlns="http://www.w3.org/2000/svg">
  <path fill="#8A3FFC" d="M32.1,-52.2C43.7,-48.9,56.6,-44.5,63.2,-35.6C69.9,-26.7,70.3,-13.4,67.8,-1.5C65.2,10.5,59.8,20.9,55.2,33.4C50.7,45.9,47,60.5,38,66.6C28.9,72.7,14.5,70.3,2.2,66.5C-10,62.6,-20,57.3,-33.7,53.9C-47.4,50.4,-64.7,48.9,-75.2,40.3C-85.7,31.6,-89.2,15.8,-88,0.7C-86.9,-14.5,-81,-28.9,-70.9,-38.1C-60.7,-47.4,-46.4,-51.4,-33.8,-54.2C-21.3,-56.9,-10.7,-58.4,-0.2,-58.1C10.3,-57.8,20.5,-55.5,32.1,-52.2Z" transform="translate(100 100)" />
</svg>